<svg xmlns="http://www.w3.org/2000/svg" viewBox="0 0 192 192">
  <rect width="192" height="192" rx="40" fill="#0d0c12"/>
  <!-- Smoke wisps -->
  <path d="M82 68 Q70 52 82 36 Q94 20 82 8" stroke="#8B9CAD" stroke-width="3.5" fill="none" stroke-linecap="round" opacity="0.5"/>
  <path d="M96 64 Q108 48 96 32 Q84 16 96 4" stroke="#8B9CAD" stroke-width="3" fill="none" stroke-linecap="round" opacity="0.35"/>
  <path d="M110 68 Q122 52 110 36 Q98 20 110 8" stroke="#8B9CAD" stroke-width="2.5" fill="none" stroke-linecap="round" opacity="0.25"/>
  <!-- Halo glow -->
  <ellipse cx="96" cy="72" rx="48" ry="16" fill="#C9A227" opacity="0.12"/>
  <!-- Halo ring -->
  <ellipse cx="96" cy="72" rx="42" ry="13" fill="none" stroke="#FFD700" stroke-width="5"/>
  <!-- Ember outer glow -->
  <ellipse cx="96" cy="96" rx="36" ry="11" fill="#FF6B35" opacity="0.35"/>
  <!-- Ash cap -->
  <ellipse cx="96" cy="92" rx="26" ry="7" fill="#3a3835"/>
  <!-- Ember core -->
  <ellipse cx="96" cy="96" rx="24" ry="7" fill="#FF6B35"/>
  <ellipse cx="96" cy="95" rx="14" ry="4" fill="#FFB050"/>
  <!-- Cigarette body -->
  <rect x="70" y="100" width="52" height="62" rx="4" fill="#F0EBE0"/>
  <!-- Paper texture -->
  <line x1="70" y1="125" x2="122" y2="125" stroke="#D8D4CA" stroke-width="1" opacity="0.6"/>
  <!-- Brand ring -->
  <rect x="70" y="150" width="52" height="6" fill="#E8D5A8" opacity="0.7"/>
  <!-- Filter -->
  <rect x="70" y="156" width="52" height="24" rx="4" fill="#C07850"/>
  <line x1="70" y1="163" x2="122" y2="163" stroke="#9A5830" stroke-width="1" opacity="0.5"/>
  <line x1="70" y1="170" x2="122" y2="170" stroke="#9A5830" stroke-width="1" opacity="0.5"/>
</svg>
